<svg version="1.1" id="Layer_1" xmlns="http://www.w3.org/2000/svg" xmlns:xlink="http://www.w3.org/1999/xlink" x="0px" y="0px"
	 width="167px" height="75.5px" viewBox="0 0 334 151" enable-background="new 0 0 334 151" xml:space="preserve">
<path fill="#FBFBFB" opacity="1.000000" stroke="none" 
	d="
M335.000000,151.000000 
	C333.672394,151.333328 332.345123,151.956268 331.017090,151.957947 
	C290.323883,152.009445 249.630600,152.000000 208.632416,151.638702 
	C218.050705,150.350021 226.220047,145.868164 234.058060,140.363327 
	C230.057449,136.035370 229.983109,122.334496 233.955856,115.986504 
	C225.947372,115.986504 218.176483,116.132462 210.416763,115.901726 
	C207.938538,115.828049 205.490005,114.755608 203.107849,114.160149 
	C203.107849,118.442825 203.107849,123.539856 203.107849,128.821045 
	C208.357803,122.912392 214.877411,126.905846 222.162018,125.163300 
	C220.956726,129.720123 221.150909,134.684738 218.952255,136.217926 
	C212.637772,140.621170 204.942245,141.398026 197.451645,139.266846 
	C183.052032,135.169968 177.171478,115.578697 185.881989,101.516418 
	C190.001190,94.866341 195.941162,91.282532 203.741943,91.806175 
	C211.413651,92.321152 219.116730,93.365143 222.956848,102.369270 
	C225.298004,96.439575 227.401413,91.112045 229.195297,86.568459 
	C225.656631,85.417679 222.488663,84.621239 219.506790,83.378326 
	C204.482315,77.115730 188.517685,79.787399 178.775620,89.788399 
	C164.429459,104.515831 165.383102,144.088257 193.568970,150.924240 
	C194.101608,151.053421 194.525421,151.631409 195.000000,152.000000 
	C143.312439,152.000000 91.624878,152.000000 39.610741,151.634506 
	C48.192417,150.369125 54.821163,145.778732 59.535740,138.389359 
	C65.749062,128.650955 67.032013,118.005997 65.016197,106.772079 
	C62.329281,91.798172 50.996643,81.156517 36.353680,80.034447 
	C20.485823,78.818520 8.072864,87.105713 3.142708,102.174377 
	C2.499740,104.139565 1.717650,106.059242 0.999998,108.000000 
	C1.000000,72.392754 1.000000,36.785503 1.000000,1.000000 
	C52.687424,1.000000 104.375053,1.000000 156.396042,1.373762 
	C154.965225,2.585705 153.220154,4.097487 151.433640,4.148161 
	C142.608719,4.398475 133.772858,4.262176 124.940842,4.262205 
	C118.030151,4.262228 111.119469,4.262209 104.983566,4.262209 
	C105.593506,7.809963 106.541718,10.849895 106.569305,13.898161 
	C106.718613,30.394341 106.730286,46.893486 106.565506,63.389374 
	C106.531761,66.767776 105.542725,70.136627 105.011292,73.403824 
	C109.899452,73.403824 115.519432,73.403824 120.154762,73.403824 
	C117.535477,63.300644 119.557327,53.343346 118.703423,42.797314 
	C128.236511,44.625889 137.401031,40.471809 145.742905,45.590351 
	C145.742905,40.318748 145.742905,34.830238 145.742905,30.486301 
	C137.060043,34.392223 127.935844,31.260780 119.168365,32.479816 
	C119.168365,26.461960 119.168365,21.221495 119.168365,15.760277 
	C129.613953,15.760277 139.762512,15.622860 149.902832,15.851707 
	C152.620483,15.913037 155.312943,17.091278 158.000000,17.752600 
	C158.000000,12.650944 158.000000,6.825472 158.000000,1.000000 
	C216.899414,1.000000 275.798828,1.000000 335.000000,1.000000 
	C335.000000,27.353460 335.000000,53.708073 334.535950,80.589966 
	C329.011353,81.117256 323.950836,81.117256 318.487274,81.117256 
	C321.270508,85.460739 322.336975,117.678551 320.331665,126.845245 
	C310.883667,114.821037 301.591583,102.916847 292.197021,91.094124 
	C289.842133,88.130592 287.363770,85.374702 290.105865,81.454315 
	C283.608063,81.454315 277.568634,81.454315 272.300018,81.454315 
	C272.892365,84.437126 273.868286,87.126419 273.890167,89.823448 
	C274.030548,107.149582 274.036285,124.478043 273.887573,141.804031 
	C273.863159,144.645782 272.856873,147.479111 272.320648,150.232758 
	C277.044495,150.232758 282.360474,150.232758 286.865692,150.232758 
	C286.229340,147.711380 285.208679,145.478256 285.175507,143.230576 
	C285.008392,131.903671 285.098755,120.572975 285.098724,109.243614 
	C285.098724,107.559380 285.098724,105.875153 285.098724,102.889473 
	C296.442047,117.289261 306.915924,130.420624 317.120209,143.758286 
	C318.325745,145.333984 318.053070,148.040588 318.612579,151.000000 
	C323.401642,151.000000 329.200836,151.000000 335.000000,151.000000 
M206.516998,59.165115 
	C206.676834,59.446518 206.836655,59.727921 207.901718,60.227364 
	C212.212723,60.193928 216.523727,60.160492 221.419098,60.803772 
	C220.955551,64.186852 223.579636,62.853218 224.900574,62.857166 
	C250.366928,62.933258 275.833588,62.923695 301.300140,62.888546 
	C302.811554,62.886459 304.322449,62.520641 305.833557,62.324085 
	C305.834747,61.833755 305.835938,61.343426 305.837097,60.853096 
	C304.022400,60.626148 302.208038,60.204884 300.392944,60.201607 
	C276.091583,60.157719 251.790039,60.195244 227.488831,60.120270 
	C225.872787,60.115288 224.259033,59.365864 223.066452,58.281418 
	C223.399567,57.424133 223.732681,56.566853 224.368088,54.931591 
	C218.069824,56.356087 211.419739,52.307964 206.516998,59.165115 
M226.869736,25.030491 
	C256.336090,25.030491 285.802460,25.030491 315.268829,25.030491 
	C315.266418,24.299147 315.264038,23.567802 315.261627,22.836458 
	C313.551422,22.836458 311.841248,22.836460 310.131042,22.836458 
	C285.518829,22.836435 260.906647,22.836296 236.294449,22.836542 
	C233.467377,22.836571 230.627258,22.694618 227.822998,22.948153 
	C227.176727,23.006582 226.653320,24.424065 225.133194,25.244995 
	C220.903824,25.244995 216.674469,25.244995 212.363007,25.244995 
	C214.151901,30.724115 216.270782,31.338301 226.211884,29.514334 
	C226.115829,28.033777 226.019760,26.553219 226.869736,25.030491 
M225.773651,51.975571 
	C225.950836,50.725002 226.128036,49.474430 226.306320,48.216106 
	C213.972931,46.985901 213.950363,46.993233 212.414963,52.691765 
	C217.045212,52.691765 221.652176,52.691765 225.818054,53.366852 
	C226.530609,53.932770 227.241699,54.991455 227.955917,54.993553 
	C256.239288,55.076542 284.522919,55.070908 312.806458,55.028881 
	C313.682465,55.027580 314.557739,54.519920 315.433350,54.248325 
	C315.364197,53.767590 315.295074,53.286854 315.225922,52.806118 
	C285.524689,52.806118 255.823441,52.806118 225.773651,51.975571 
M229.342590,40.080772 
	C263.901276,40.080772 298.459961,40.080772 333.018677,40.080772 
	C333.017365,39.332600 333.016083,38.584423 333.014801,37.836250 
	C298.069763,37.836250 263.124725,37.836250 227.338074,37.670506 
	C227.243896,36.112049 227.149719,34.553596 227.954819,32.734203 
	C260.292572,32.734203 292.630310,32.734203 324.968079,32.734203 
	C325.015411,32.108089 325.062714,31.481976 325.110046,30.855862 
	C323.964264,30.581062 322.818817,30.067890 321.672638,30.066240 
	C291.177246,30.022291 260.681641,30.070005 230.186569,29.961246 
	C227.580078,29.951952 227.057495,30.989544 226.242905,32.814075 
	C222.494446,32.814075 218.746002,32.814075 214.717560,32.814075 
	C214.928101,34.663017 215.084976,36.040642 215.282242,37.773121 
	C219.840286,37.773121 224.076279,37.773121 227.974243,38.667561 
	C228.173859,39.249096 228.373474,39.830631 227.454269,40.494213 
	C223.396622,40.494213 219.338974,40.494213 215.105133,40.494213 
	C215.000229,42.114780 214.911469,43.485977 214.816391,44.954575 
	C219.233582,44.954575 223.168030,44.954575 227.148270,45.806747 
	C228.297668,46.489491 229.444916,47.764336 230.596786,47.768517 
	C260.697327,47.877754 290.798431,47.866772 320.899292,47.818531 
	C322.286072,47.816311 323.672028,47.276520 325.058350,46.987099 
	C324.992462,46.348583 324.926575,45.710068 324.860657,45.071552 
	C292.235077,45.071552 259.609467,45.071552 227.116013,44.317955 
	C227.590927,43.023254 228.065842,41.728554 229.342590,40.080772 
M77.596169,138.360031 
	C77.148193,142.400208 76.700218,146.440384 76.263489,150.379135 
	C80.869659,150.379135 86.393890,150.379135 91.346107,150.379135 
	C88.217636,141.071625 90.601898,131.741211 89.674500,122.162346 
	C93.655380,122.162346 96.972031,122.389549 100.242424,122.097939 
	C103.461464,121.810921 105.355240,122.812790 106.848946,125.798965 
	C109.665398,131.429550 113.140076,136.732452 115.920471,142.378708 
	C117.062027,144.696930 117.114120,147.551620 117.679138,150.244995 
	C123.087799,150.244995 129.580353,150.244995 134.842606,150.244995 
	C129.333038,141.113068 123.698914,131.774673 118.018097,122.358894 
	C131.781967,116.316711 136.080536,107.265350 132.172699,93.927864 
	C130.066406,86.739090 125.471687,82.258499 118.043587,81.921074 
	C104.922699,81.325081 91.774033,81.334625 78.636505,81.120636 
	C77.434860,81.101067 76.229698,81.297722 75.872231,81.326309 
	C76.499252,84.639587 77.492889,87.533333 77.521965,90.436737 
	C77.678749,106.088211 77.596169,121.742073 77.596169,138.360031 
M32.902214,47.499893 
	C32.902214,51.664928 33.078537,55.839474 32.854649,59.992439 
	C32.610760,64.516441 31.995584,69.020432 31.562387,73.332855 
	C35.778111,73.332855 41.063770,73.332855 46.282425,73.332855 
	C45.396961,71.505089 44.117210,70.080299 44.101269,68.641502 
	C43.948845,54.887867 44.010185,41.131863 44.010185,26.372513 
	C45.379036,27.932852 46.118755,28.702505 46.776455,29.536816 
	C56.149586,41.426952 65.612854,53.248795 74.780426,65.295586 
	C76.378586,67.395668 76.719383,70.452606 77.771790,73.438988 
	C82.149734,73.438988 87.833138,73.438988 92.835838,73.438988 
	C92.193344,70.608696 91.137367,68.066574 91.114639,65.515259 
	C90.964775,48.689713 90.957878,31.861507 91.101906,15.035861 
	C91.131943,11.527154 91.987740,8.025516 92.428047,4.778330 
	C87.920082,4.778330 82.601471,4.778330 76.836716,4.778330 
	C80.144814,8.248079 81.539932,41.769894 79.149849,49.791897 
	C78.598755,49.130157 78.051750,48.504799 77.538757,47.852680 
	C68.382484,36.213200 59.131603,24.645498 50.172153,12.856344 
	C48.636375,10.835515 48.347332,7.867199 47.247215,4.648623 
	C42.631611,4.648623 36.472801,4.648623 31.123352,4.648623 
	C31.752363,7.606209 32.777733,10.301892 32.823479,13.014098 
	C33.011696,24.173309 32.902214,35.337543 32.902214,47.499893 
M167.487137,58.877708 
	C178.852097,78.524254 207.722992,80.976151 219.539993,63.106392 
	C212.157715,63.106392 204.883926,62.873352 197.631104,63.163803 
	C187.985367,63.550076 180.604172,59.858932 177.561325,50.959293 
	C175.743942,45.643814 174.942017,39.473694 175.607193,33.918053 
	C177.197601,20.634689 187.195786,13.159213 198.928970,14.857418 
	C205.637726,15.828410 212.602097,15.033188 220.101578,15.033188 
	C204.547913,-3.597071 176.046204,0.012254 166.523834,21.108326 
	C160.954514,33.446724 161.428040,45.940769 167.487137,58.877708 
M158.073532,90.725121 
	C158.669601,87.561043 159.265671,84.396957 159.817352,81.468552 
	C154.815552,81.468552 149.119568,81.468552 144.217560,81.468552 
	C144.835602,84.429848 145.864044,87.126198 145.887177,89.831146 
	C146.035355,107.150276 146.040405,124.471985 145.885330,141.791000 
	C145.859863,144.633362 144.810883,147.466553 144.218964,150.382751 
	C149.276810,150.382751 154.958954,150.382751 159.780731,150.382751 
	C159.182114,147.317474 158.174210,144.483368 158.148224,141.640274 
	C157.996094,124.987442 158.073532,108.332512 158.073532,90.725121 
M257.962952,150.695236 
	C258.970612,150.546616 259.978271,150.397980 260.176270,150.368774 
	C259.516541,147.505264 258.499878,145.095566 258.478699,142.677139 
	C258.335968,126.388481 258.304565,110.096931 258.472961,93.808754 
	C258.516296,89.614716 259.403168,85.429390 259.889801,81.347099 
	C255.173370,81.347099 249.617050,81.347099 244.705963,81.347099 
	C245.194687,84.650017 246.019547,87.722679 246.043274,90.801529 
	C246.172638,107.589127 246.175949,124.378807 246.040131,141.166306 
	C246.015289,144.237930 245.148132,147.302734 244.619186,150.695206 
	C248.498505,150.695206 252.783386,150.695206 257.962952,150.695236 
M17.174768,22.509670 
	C17.996216,16.537796 14.935197,10.036847 19.976540,4.739013 
	C13.945965,4.739013 8.285988,4.739013 3.419639,4.739013 
	C4.007008,7.333492 4.945185,9.588037 4.961316,11.849159 
	C5.084942,29.178202 5.104727,46.509148 4.961430,63.837883 
	C4.934823,67.055435 4.027133,70.265694 3.537404,73.406723 
	C8.611054,73.406723 14.245988,73.406723 19.167606,73.406723 
	C18.445837,70.542419 17.293085,68.026985 17.260660,65.497192 
	C17.081280,51.502243 17.174772,37.503799 17.174768,22.509670 
M280.499756,17.500351 
	C283.329010,17.500370 286.158264,17.500397 288.987518,17.500406 
	C291.983185,17.500416 294.978851,17.500408 297.974518,17.500408 
	C300.507538,17.500408 303.040558,17.500408 305.573547,17.500408 
	C305.568207,16.806009 305.562866,16.111609 305.557556,15.417210 
	C304.183807,15.283202 302.808380,15.016973 301.436615,15.034587 
	C269.893219,15.439592 238.286697,13.467122 206.841949,17.530182 
	C206.612442,17.559837 206.432190,17.970539 206.235977,18.209467 
	C211.279297,23.527884 211.279556,23.531040 223.269485,22.525005 
	C223.505081,22.505238 223.711777,22.140989 223.994766,21.879395 
	C223.600723,20.564465 223.206802,19.249926 222.682449,17.500189 
	C241.922195,17.500189 260.710968,17.500189 280.499756,17.500351 
z"/>
<path fill="#040404" opacity="1.000000" stroke="none" 
	d="
M335.000000,150.666672 
	C329.200836,151.000000 323.401642,151.000000 318.612579,151.000000 
	C318.053070,148.040588 318.325745,145.333984 317.120209,143.758286 
	C306.915924,130.420624 296.442047,117.289261 285.098724,102.889473 
	C285.098724,105.875153 285.098724,107.559380 285.098724,109.243614 
	C285.098755,120.572975 285.008392,131.903671 285.175507,143.230576 
	C285.208679,145.478256 286.229340,147.711380 286.865692,150.232758 
	C282.360474,150.232758 277.044495,150.232758 272.320648,150.232758 
	C272.856873,147.479111 273.863159,144.645782 273.887573,141.804031 
	C274.036285,124.478043 274.030548,107.149582 273.890167,89.823448 
	C273.868286,87.126419 272.892365,84.437126 272.300018,81.454315 
	C277.568634,81.454315 283.608063,81.454315 290.105865,81.454315 
	C287.363770,85.374702 289.842133,88.130592 292.197021,91.094124 
	C301.591583,102.916847 310.883667,114.821037 320.331665,126.845245 
	C322.336975,117.678551 321.270508,85.460739 318.487274,81.117256 
	C323.950836,81.117256 329.011353,81.117256 334.535950,81.058624 
	C335.000000,81.444443 335.000000,81.888893 334.608948,82.693329 
	C333.520569,84.441521 332.225861,85.825531 332.216095,87.218544 
	C332.082184,106.304863 332.060608,125.393082 332.249847,144.478455 
	C332.264893,145.994568 334.041840,147.493225 335.000000,149.000000 
	C335.000000,149.444443 335.000000,149.888901 335.000000,150.666672 
z"/>
<path fill="#040404" opacity="1.000000" stroke="none" 
	d="
M0.999998,108.466858 
	C1.717650,106.059242 2.499740,104.139565 3.142708,102.174377 
	C8.072864,87.105713 20.485823,78.818520 36.353680,80.034447 
	C50.996643,81.156517 62.329281,91.798172 65.016197,106.772079 
	C67.032013,118.005997 65.749062,128.650955 59.535740,138.389359 
	C54.821163,145.778732 48.192417,150.369125 39.142082,151.634506 
	C34.975456,152.000000 30.950911,152.000000 26.349350,151.653473 
	C13.214333,147.991714 5.959240,139.568771 2.596153,127.342491 
	C2.273813,126.170639 1.541818,125.111473 1.000000,124.000000 
	C1.000000,118.977905 1.000000,113.955818 0.999998,108.466858 
M51.222111,127.468422 
	C51.783272,121.432442 53.298004,115.299042 52.693508,109.382149 
	C51.654221,99.209488 43.498150,92.124054 34.162201,91.749672 
	C24.806334,91.374496 16.539175,97.884781 14.465287,108.045776 
	C13.588750,112.340347 13.665796,116.962067 14.085029,121.361168 
	C14.973916,130.688461 21.860382,138.582458 29.642376,139.915771 
	C39.122391,141.540009 45.793598,137.877792 51.222111,127.468422 
z"/>
<path fill="#040404" opacity="1.000000" stroke="none" 
	d="
M195.463181,152.000000 
	C194.525421,151.631409 194.101608,151.053421 193.568970,150.924240 
	C165.383102,144.088257 164.429459,104.515831 178.775620,89.788399 
	C188.517685,79.787399 204.482315,77.115730 219.506790,83.378326 
	C222.488663,84.621239 225.656631,85.417679 229.195297,86.568459 
	C227.401413,91.112045 225.298004,96.439575 222.956848,102.369270 
	C219.116730,93.365143 211.413651,92.321152 203.741943,91.806175 
	C195.941162,91.282532 190.001190,94.866341 185.881989,101.516418 
	C177.171478,115.578697 183.052032,135.169968 197.451645,139.266846 
	C204.942245,141.398026 212.637772,140.621170 218.952255,136.217926 
	C221.150909,134.684738 220.956726,129.720123 222.162018,125.163300 
	C214.877411,126.905846 208.357803,122.912392 203.107849,128.821045 
	C203.107849,123.539856 203.107849,118.442825 203.107849,114.160149 
	C205.490005,114.755608 207.938538,115.828049 210.416763,115.901726 
	C218.176483,116.132462 225.947372,115.986504 233.955856,115.986504 
	C229.983109,122.334496 230.057449,136.035370 234.058060,140.363327 
	C226.220047,145.868164 218.050705,150.350021 208.163757,151.638702 
	C203.975449,152.000000 199.950912,152.000000 195.463181,152.000000 
z"/>
<path fill="#090909" opacity="1.000000" stroke="none" 
	d="
M157.750000,1.000000 
	C158.000000,6.825472 158.000000,12.650944 158.000000,17.752600 
	C155.312943,17.091278 152.620483,15.913037 149.902832,15.851707 
	C139.762512,15.622860 129.613953,15.760277 119.168365,15.760277 
	C119.168365,21.221495 119.168365,26.461960 119.168365,32.479816 
	C127.935844,31.260780 137.060043,34.392223 145.742905,30.486301 
	C145.742905,34.830238 145.742905,40.318748 145.742905,45.590351 
	C137.401031,40.471809 128.236511,44.625889 118.703423,42.797314 
	C119.557327,53.343346 117.535477,63.300644 120.154762,73.403824 
	C115.519432,73.403824 109.899452,73.403824 105.011292,73.403824 
	C105.542725,70.136627 106.531761,66.767776 106.565506,63.389374 
	C106.730286,46.893486 106.718613,30.394341 106.569305,13.898161 
	C106.541718,10.849895 105.593506,7.809963 104.983566,4.262209 
	C111.119469,4.262209 118.030151,4.262228 124.940842,4.262205 
	C133.772858,4.262176 142.608719,4.398475 151.433640,4.148161 
	C153.220154,4.097487 154.965225,2.585705 156.864700,1.373762 
	C157.000000,1.000000 157.500000,1.000000 157.750000,1.000000 
z"/>
<path fill="#F9F9F9" opacity="1.000000" stroke="none" 
	d="
M1.000000,124.468658 
	C1.541818,125.111473 2.273813,126.170639 2.596153,127.342491 
	C5.959240,139.568771 13.214333,147.991714 25.886166,151.653473 
	C17.736082,152.000000 9.472164,152.000000 1.000000,152.000000 
	C1.000000,142.980179 1.000000,133.958740 1.000000,124.468658 
z"/>
<path fill="#E9E9E9" opacity="1.000000" stroke="none" 
	d="
M335.000000,148.531342 
	C334.041840,147.493225 332.264893,145.994568 332.249847,144.478455 
	C332.060608,125.393082 332.082184,106.304863 332.216095,87.218544 
	C332.225861,85.825531 333.520569,84.441521 334.608948,83.026657 
	C335.000000,104.687561 335.000000,126.375122 335.000000,148.531342 
z"/>
<path fill="#060606" opacity="1.000000" stroke="none" 
	d="
M77.596161,137.877563 
	C77.596169,121.742073 77.678749,106.088211 77.521965,90.436737 
	C77.492889,87.533333 76.499252,84.639587 75.872231,81.326309 
	C76.229698,81.297722 77.434860,81.101067 78.636505,81.120636 
	C91.774033,81.334625 104.922699,81.325081 118.043587,81.921074 
	C125.471687,82.258499 130.066406,86.739090 132.172699,93.927864 
	C136.080536,107.265350 131.781967,116.316711 118.018097,122.358894 
	C123.698914,131.774673 129.333038,141.113068 134.842606,150.244995 
	C129.580353,150.244995 123.087799,150.244995 117.679138,150.244995 
	C117.114120,147.551620 117.062027,144.696930 115.920471,142.378708 
	C113.140076,136.732452 109.665398,131.429550 106.848946,125.798965 
	C105.355240,122.812790 103.461464,121.810921 100.242424,122.097939 
	C96.972031,122.389549 93.655380,122.162346 89.674500,122.162346 
	C90.601898,131.741211 88.217636,141.071625 91.346107,150.379135 
	C86.393890,150.379135 80.869659,150.379135 76.263489,150.379135 
	C76.700218,146.440384 77.148193,142.400208 77.596161,137.877563 
M114.638298,110.736671 
	C120.311134,108.421074 122.145653,105.079178 120.887878,98.983727 
	C119.845634,93.932755 116.127899,92.653397 111.570168,92.664276 
	C104.464737,92.681244 97.359245,92.668762 90.113205,92.668762 
	C90.113205,98.888641 90.113205,104.761673 90.113205,110.856461 
	C98.199951,110.856461 105.991539,110.856461 114.638298,110.736671 
z"/>
<path fill="#040404" opacity="1.000000" stroke="none" 
	d="
M32.902214,46.999908 
	C32.902214,35.337543 33.011696,24.173309 32.823479,13.014098 
	C32.777733,10.301892 31.752363,7.606209 31.123352,4.648623 
	C36.472801,4.648623 42.631611,4.648623 47.247215,4.648623 
	C48.347332,7.867199 48.636375,10.835515 50.172153,12.856344 
	C59.131603,24.645498 68.382484,36.213200 77.538757,47.852680 
	C78.051750,48.504799 78.598755,49.130157 79.149849,49.791897 
	C81.539932,41.769894 80.144814,8.248079 76.836716,4.778330 
	C82.601471,4.778330 87.920082,4.778330 92.428047,4.778330 
	C91.987740,8.025516 91.131943,11.527154 91.101906,15.035861 
	C90.957878,31.861507 90.964775,48.689713 91.114639,65.515259 
	C91.137367,68.066574 92.193344,70.608696 92.835838,73.438988 
	C87.833138,73.438988 82.149734,73.438988 77.771790,73.438988 
	C76.719383,70.452606 76.378586,67.395668 74.780426,65.295586 
	C65.612854,53.248795 56.149586,41.426952 46.776455,29.536816 
	C46.118755,28.702505 45.379036,27.932852 44.010185,26.372513 
	C44.010185,41.131863 43.948845,54.887867 44.101269,68.641502 
	C44.117210,70.080299 45.396961,71.505089 46.282425,73.332855 
	C41.063770,73.332855 35.778111,73.332855 31.562387,73.332855 
	C31.995584,69.020432 32.610760,64.516441 32.854649,59.992439 
	C33.078537,55.839474 32.902214,51.664928 32.902214,46.999908 
z"/>
<path fill="#040404" opacity="1.000000" stroke="none" 
	d="
M167.297485,58.553028 
	C161.428040,45.940769 160.954514,33.446724 166.523834,21.108326 
	C176.046204,0.012254 204.547913,-3.597071 220.101578,15.033188 
	C212.602097,15.033188 205.637726,15.828410 198.928970,14.857418 
	C187.195786,13.159213 177.197601,20.634689 175.607193,33.918053 
	C174.942017,39.473694 175.743942,45.643814 177.561325,50.959293 
	C180.604172,59.858932 187.985367,63.550076 197.631104,63.163803 
	C204.883926,62.873352 212.157715,63.106392 219.539993,63.106392 
	C207.722992,80.976151 178.852097,78.524254 167.297485,58.553028 
z"/>
<path fill="#040404" opacity="1.000000" stroke="none" 
	d="
M158.073532,91.201706 
	C158.073532,108.332512 157.996094,124.987442 158.148224,141.640274 
	C158.174210,144.483368 159.182114,147.317474 159.780731,150.382751 
	C154.958954,150.382751 149.276810,150.382751 144.218964,150.382751 
	C144.810883,147.466553 145.859863,144.633362 145.885330,141.791000 
	C146.040405,124.471985 146.035355,107.150276 145.887177,89.831146 
	C145.864044,87.126198 144.835602,84.429848 144.217560,81.468552 
	C149.119568,81.468552 154.815552,81.468552 159.817352,81.468552 
	C159.265671,84.396957 158.669601,87.561043 158.073532,91.201706 
z"/>
<path fill="#060606" opacity="1.000000" stroke="none" 
	d="
M257.515625,150.695221 
	C252.783386,150.695206 248.498505,150.695206 244.619186,150.695206 
	C245.148132,147.302734 246.015289,144.237930 246.040131,141.166306 
	C246.175949,124.378807 246.172638,107.589127 246.043274,90.801529 
	C246.019547,87.722679 245.194687,84.650017 244.705963,81.347099 
	C249.617050,81.347099 255.173370,81.347099 259.889801,81.347099 
	C259.403168,85.429390 258.516296,89.614716 258.472961,93.808754 
	C258.304565,110.096931 258.335968,126.388481 258.478699,142.677139 
	C258.499878,145.095566 259.516541,147.505264 260.176270,150.368774 
	C259.978271,150.397980 258.970612,150.546616 257.515625,150.695221 
z"/>
<path fill="#060606" opacity="1.000000" stroke="none" 
	d="
M17.174768,23.008112 
	C17.174772,37.503799 17.081280,51.502243 17.260660,65.497192 
	C17.293085,68.026985 18.445837,70.542419 19.167606,73.406723 
	C14.245988,73.406723 8.611054,73.406723 3.537404,73.406723 
	C4.027133,70.265694 4.934823,67.055435 4.961430,63.837883 
	C5.104727,46.509148 5.084942,29.178202 4.961316,11.849159 
	C4.945185,9.588037 4.007008,7.333492 3.419639,4.739013 
	C8.285988,4.739013 13.945965,4.739013 19.976540,4.739013 
	C14.935197,10.036847 17.996216,16.537796 17.174768,23.008112 
z"/>
<path fill="#303030" opacity="1.000000" stroke="none" 
	d="
M279.999756,17.500271 
	C260.710968,17.500189 241.922195,17.500189 222.682449,17.500189 
	C223.206802,19.249926 223.600723,20.564465 223.994766,21.879395 
	C223.711777,22.140989 223.505081,22.505238 223.269485,22.525005 
	C211.279556,23.531040 211.279297,23.527884 206.232452,18.206394 
	C206.432190,17.970539 206.612442,17.559837 206.841949,17.530182 
	C238.286697,13.467122 269.893219,15.439592 301.436615,15.034587 
	C302.808380,15.016973 304.183807,15.283202 305.557556,15.417210 
	C305.562866,16.111609 305.568207,16.806009 305.573547,17.500408 
	C303.040558,17.500408 300.507538,17.500408 297.974518,17.500408 
	C294.978851,17.500408 291.983185,17.500416 288.987518,17.500406 
	C286.158264,17.500397 283.329010,17.500370 279.999756,17.500271 
z"/>
<path fill="#414141" opacity="1.000000" stroke="none" 
	d="
M226.983887,45.071552 
	C259.609467,45.071552 292.235077,45.071552 324.860657,45.071552 
	C324.926575,45.710068 324.992462,46.348583 325.058350,46.987099 
	C323.672028,47.276520 322.286072,47.816311 320.899292,47.818531 
	C290.798431,47.866772 260.697327,47.877754 230.596786,47.768517 
	C229.444916,47.764336 228.297668,46.489491 227.107880,45.422218 
	C227.067474,45.037685 226.983887,45.071552 226.983887,45.071552 
z"/>
<path fill="#404040" opacity="1.000000" stroke="none" 
	d="
M227.180511,33.113998 
	C227.057495,30.989544 227.580078,29.951952 230.186569,29.961246 
	C260.681641,30.070005 291.177246,30.022291 321.672638,30.066240 
	C322.818817,30.067890 323.964264,30.581062 325.110046,30.855862 
	C325.062714,31.481976 325.015411,32.108089 324.968079,32.734203 
	C292.630310,32.734203 260.292572,32.734203 227.548431,32.881760 
	C227.142044,33.029316 227.180511,33.113998 227.180511,33.113998 
z"/>
<path fill="#454545" opacity="1.000000" stroke="none" 
	d="
M222.644226,58.962696 
	C224.259033,59.365864 225.872787,60.115288 227.488831,60.120270 
	C251.790039,60.195244 276.091583,60.157719 300.392944,60.201607 
	C302.208038,60.204884 304.022400,60.626148 305.837097,60.853096 
	C305.835938,61.343426 305.834747,61.833755 305.833557,62.324085 
	C304.322449,62.520641 302.811554,62.886459 301.300140,62.888546 
	C275.833588,62.923695 250.366928,62.933258 224.900574,62.857166 
	C223.579636,62.853218 220.955551,64.186852 221.347900,60.306908 
	C221.732544,59.527599 222.188385,59.245148 222.644226,58.962696 
z"/>
<path fill="#000000" opacity="1.000000" stroke="none" 
	d="
M228.179672,37.836250 
	C263.124725,37.836250 298.069763,37.836250 333.014801,37.836250 
	C333.016083,38.584423 333.017365,39.332600 333.018677,40.080772 
	C298.459961,40.080772 263.901276,40.080772 228.926987,40.234360 
	C228.511383,40.387947 228.573105,40.412167 228.573105,40.412167 
	C228.373474,39.830631 228.173859,39.249096 228.094269,38.223679 
	C228.214294,37.779793 228.179672,37.836250 228.179672,37.836250 
z"/>
<path fill="#000000" opacity="1.000000" stroke="none" 
	d="
M226.122208,52.806118 
	C255.823441,52.806118 285.524689,52.806118 315.225922,52.806118 
	C315.295074,53.286854 315.364197,53.767590 315.433350,54.248325 
	C314.557739,54.519920 313.682465,55.027580 312.806458,55.028881 
	C284.522919,55.070908 256.239288,55.076542 227.955917,54.993553 
	C227.241699,54.991455 226.530609,53.932770 225.992111,53.043221 
	C226.166168,52.719589 226.122208,52.806118 226.122208,52.806118 
z"/>
<path fill="#010101" opacity="1.000000" stroke="none" 
	d="
M226.073380,25.216129 
	C226.653320,24.424065 227.176727,23.006582 227.822998,22.948153 
	C230.627258,22.694618 233.467377,22.836571 236.294449,22.836542 
	C260.906647,22.836296 285.518829,22.836435 310.131042,22.836458 
	C311.841248,22.836460 313.551422,22.836458 315.261627,22.836458 
	C315.264038,23.567802 315.266418,24.299147 315.268829,25.030491 
	C285.802460,25.030491 256.336090,25.030491 226.425110,25.096870 
	C225.980469,25.163248 226.073380,25.216127 226.073380,25.216129 
z"/>
<path fill="#141414" opacity="1.000000" stroke="none" 
	d="
M222.855347,58.622055 
	C222.188385,59.245148 221.732544,59.527599 221.055725,59.968552 
	C216.523727,60.160492 212.212723,60.193928 207.465668,59.881863 
	C207.029633,59.536362 207.030396,59.062248 207.030396,59.062248 
	C211.419739,52.307964 218.069824,56.356087 224.368088,54.931591 
	C223.732681,56.566853 223.399567,57.424133 222.855347,58.622055 
z"/>
<path fill="#141414" opacity="1.000000" stroke="none" 
	d="
M226.212646,52.705677 
	C221.652176,52.691765 217.045212,52.691765 212.414963,52.691765 
	C213.950363,46.993233 213.972931,46.985901 226.306320,48.216106 
	C226.128036,49.474430 225.950836,50.725002 225.947937,52.390846 
	C226.122208,52.806118 226.166168,52.719589 226.212646,52.705677 
z"/>
<path fill="#0B0B0B" opacity="1.000000" stroke="none" 
	d="
M225.952087,25.117954 
	C226.019760,26.553219 226.115829,28.033777 226.212021,29.514324 
	C216.270782,31.338301 214.151901,30.724115 212.363007,25.244995 
	C216.674469,25.244995 220.903824,25.244995 225.603287,25.230560 
	C226.073380,25.216127 225.980469,25.163248 225.952087,25.117954 
z"/>
<path fill="#101010" opacity="1.000000" stroke="none" 
	d="
M227.084976,44.996132 
	C223.168030,44.954575 219.233582,44.954575 214.816391,44.954575 
	C214.911469,43.485977 215.000229,42.114780 215.105133,40.494213 
	C219.338974,40.494213 223.396622,40.494213 228.013687,40.453190 
	C228.573105,40.412167 228.511383,40.387947 228.526062,40.410896 
	C228.065842,41.728554 227.590927,43.023254 227.049957,44.694756 
	C226.983887,45.071552 227.067474,45.037685 227.084976,44.996132 
z"/>
<path fill="#141414" opacity="1.000000" stroke="none" 
	d="
M227.098785,33.012230 
	C227.149719,34.553596 227.243896,36.112049 227.758881,37.753380 
	C228.179672,37.836250 228.214294,37.779793 228.263290,37.776459 
	C224.076279,37.773121 219.840286,37.773121 215.282242,37.773121 
	C215.084976,36.040642 214.928101,34.663017 214.717560,32.814075 
	C218.746002,32.814075 222.494446,32.814075 226.711700,32.964035 
	C227.180511,33.113998 227.142044,33.029316 227.098785,33.012230 
z"/>
<path fill="#454545" opacity="1.000000" stroke="none" 
	d="
M206.773697,59.113682 
	C207.030396,59.062248 207.029633,59.536362 207.013062,59.772842 
	C206.836655,59.727921 206.676834,59.446518 206.773697,59.113682 
z"/>
<path fill="#FDFDFD" opacity="1.000000" stroke="none" 
	d="
M51.097061,127.837570 
	C45.793598,137.877792 39.122391,141.540009 29.642376,139.915771 
	C21.860382,138.582458 14.973916,130.688461 14.085029,121.361168 
	C13.665796,116.962067 13.588750,112.340347 14.465287,108.045776 
	C16.539175,97.884781 24.806334,91.374496 34.162201,91.749672 
	C43.498150,92.124054 51.654221,99.209488 52.693508,109.382149 
	C53.298004,115.299042 51.783272,121.432442 51.097061,127.837570 
z"/>
<path fill="#FCFCFC" opacity="1.000000" stroke="none" 
	d="
M114.210709,110.796570 
	C105.991539,110.856461 98.199951,110.856461 90.113205,110.856461 
	C90.113205,104.761673 90.113205,98.888641 90.113205,92.668762 
	C97.359245,92.668762 104.464737,92.681244 111.570168,92.664276 
	C116.127899,92.653397 119.845634,93.932755 120.887878,98.983727 
	C122.145653,105.079178 120.311134,108.421074 114.210709,110.796570 
z"/>
</svg>